<mxfile host="Electron" modified="2023-11-02T15:51:06.617Z" agent="Mozilla/5.0 (Macintosh; Intel Mac OS X 10_15_7) AppleWebKit/537.36 (KHTML, like Gecko) draw.io/22.0.3 Chrome/114.0.5735.289 Electron/25.8.4 Safari/537.36" etag="ghG1w-hNlm4FU-wrSV9C" version="22.0.3" type="device">
  <diagram name="ページ1" id="ljHSjmdBYhS3IXX7PkYT">
    <mxGraphModel dx="1853" dy="667" grid="1" gridSize="10" guides="1" tooltips="1" connect="1" arrows="1" fold="1" page="1" pageScale="1" pageWidth="827" pageHeight="1169" math="0" shadow="0">
      <root>
        <mxCell id="0" />
        <mxCell id="1" parent="0" />
        <mxCell id="SzPahXUQgZStsBEl5bmt-5" value="" style="rounded=0;whiteSpace=wrap;html=1;" vertex="1" parent="1">
          <mxGeometry x="-130" y="270" width="1010" height="650" as="geometry" />
        </mxCell>
        <mxCell id="SzPahXUQgZStsBEl5bmt-4" value="" style="rounded=0;whiteSpace=wrap;html=1;" vertex="1" parent="1">
          <mxGeometry x="-90" y="770" width="590" height="120" as="geometry" />
        </mxCell>
        <mxCell id="SzPahXUQgZStsBEl5bmt-3" value="" style="rounded=0;whiteSpace=wrap;html=1;" vertex="1" parent="1">
          <mxGeometry x="-90" y="290" width="590" height="160" as="geometry" />
        </mxCell>
        <mxCell id="Gjrd4G-fqbDF2169ij8w-7" value="&lt;font style=&quot;font-size: 27px;&quot;&gt;start&lt;/font&gt;" style="rounded=1;whiteSpace=wrap;html=1;" parent="1" vertex="1">
          <mxGeometry x="-80" y="780" width="270" height="90" as="geometry" />
        </mxCell>
        <mxCell id="Gjrd4G-fqbDF2169ij8w-8" value="&lt;font style=&quot;font-size: 27px;&quot;&gt;stop&lt;/font&gt;" style="rounded=1;whiteSpace=wrap;html=1;" parent="1" vertex="1">
          <mxGeometry x="220" y="780" width="270" height="90" as="geometry" />
        </mxCell>
        <mxCell id="Gjrd4G-fqbDF2169ij8w-9" value="&lt;font style=&quot;font-size: 20px;&quot;&gt;スコア：&lt;br&gt;&lt;br&gt;ヒット数：&lt;/font&gt;" style="rounded=0;whiteSpace=wrap;html=1;" parent="1" vertex="1">
          <mxGeometry x="-80" y="300" width="420" height="130" as="geometry" />
        </mxCell>
        <mxCell id="Gjrd4G-fqbDF2169ij8w-10" value="" style="rounded=0;whiteSpace=wrap;html=1;" parent="1" vertex="1">
          <mxGeometry x="-90" y="460" width="590" height="290" as="geometry" />
        </mxCell>
        <mxCell id="Gjrd4G-fqbDF2169ij8w-11" value="&lt;font style=&quot;font-size: 20px;&quot;&gt;制限時間&lt;/font&gt;" style="whiteSpace=wrap;html=1;aspect=fixed;" parent="1" vertex="1">
          <mxGeometry x="360" y="300" width="130" height="130" as="geometry" />
        </mxCell>
        <mxCell id="Gjrd4G-fqbDF2169ij8w-12" value="" style="ellipse;whiteSpace=wrap;html=1;" parent="1" vertex="1">
          <mxGeometry x="-70" y="470" width="110" height="70" as="geometry" />
        </mxCell>
        <mxCell id="Gjrd4G-fqbDF2169ij8w-13" value="" style="ellipse;whiteSpace=wrap;html=1;" parent="1" vertex="1">
          <mxGeometry x="-70" y="560" width="110" height="70" as="geometry" />
        </mxCell>
        <mxCell id="Gjrd4G-fqbDF2169ij8w-14" value="" style="ellipse;whiteSpace=wrap;html=1;" parent="1" vertex="1">
          <mxGeometry x="-70" y="660" width="110" height="70" as="geometry" />
        </mxCell>
        <mxCell id="Gjrd4G-fqbDF2169ij8w-15" value="" style="ellipse;whiteSpace=wrap;html=1;" parent="1" vertex="1">
          <mxGeometry x="70" y="470" width="110" height="70" as="geometry" />
        </mxCell>
        <mxCell id="Gjrd4G-fqbDF2169ij8w-16" value="" style="ellipse;whiteSpace=wrap;html=1;" parent="1" vertex="1">
          <mxGeometry x="70" y="560" width="110" height="70" as="geometry" />
        </mxCell>
        <mxCell id="Gjrd4G-fqbDF2169ij8w-17" value="" style="ellipse;whiteSpace=wrap;html=1;" parent="1" vertex="1">
          <mxGeometry x="70" y="660" width="110" height="70" as="geometry" />
        </mxCell>
        <mxCell id="Gjrd4G-fqbDF2169ij8w-18" value="" style="ellipse;whiteSpace=wrap;html=1;" parent="1" vertex="1">
          <mxGeometry x="210" y="470" width="110" height="70" as="geometry" />
        </mxCell>
        <mxCell id="Gjrd4G-fqbDF2169ij8w-19" value="" style="ellipse;whiteSpace=wrap;html=1;" parent="1" vertex="1">
          <mxGeometry x="210" y="560" width="110" height="70" as="geometry" />
        </mxCell>
        <mxCell id="Gjrd4G-fqbDF2169ij8w-20" value="" style="ellipse;whiteSpace=wrap;html=1;" parent="1" vertex="1">
          <mxGeometry x="210" y="660" width="110" height="70" as="geometry" />
        </mxCell>
        <mxCell id="Gjrd4G-fqbDF2169ij8w-21" value="" style="ellipse;whiteSpace=wrap;html=1;" parent="1" vertex="1">
          <mxGeometry x="350" y="470" width="110" height="70" as="geometry" />
        </mxCell>
        <mxCell id="Gjrd4G-fqbDF2169ij8w-22" value="" style="ellipse;whiteSpace=wrap;html=1;" parent="1" vertex="1">
          <mxGeometry x="350" y="560" width="110" height="70" as="geometry" />
        </mxCell>
        <mxCell id="Gjrd4G-fqbDF2169ij8w-23" value="" style="ellipse;whiteSpace=wrap;html=1;" parent="1" vertex="1">
          <mxGeometry x="350" y="660" width="110" height="70" as="geometry" />
        </mxCell>
        <mxCell id="Gjrd4G-fqbDF2169ij8w-26" value="" style="rounded=0;whiteSpace=wrap;html=1;" parent="1" vertex="1">
          <mxGeometry x="530" y="290" width="310" height="600" as="geometry" />
        </mxCell>
        <mxCell id="Gjrd4G-fqbDF2169ij8w-27" value="&lt;span style=&quot;font-size: 20px;&quot;&gt;スコア一覧&lt;/span&gt;" style="rounded=0;whiteSpace=wrap;html=1;" parent="1" vertex="1">
          <mxGeometry x="560" y="310" width="260" height="80" as="geometry" />
        </mxCell>
        <mxCell id="Gjrd4G-fqbDF2169ij8w-28" value="&lt;font style=&quot;font-size: 20px;&quot;&gt;個人のスコアを並べる&lt;br&gt;1位：1000点&lt;br&gt;2位：500点&lt;br&gt;3位：100点&lt;br&gt;｜&lt;br&gt;とりあえず10位まで&lt;br&gt;&lt;br&gt;&lt;/font&gt;" style="rounded=0;whiteSpace=wrap;html=1;" parent="1" vertex="1">
          <mxGeometry x="560" y="410" width="260" height="470" as="geometry" />
        </mxCell>
      </root>
    </mxGraphModel>
  </diagram>
</mxfile>
